# xmcd CD database file
#
# Track frame offsets:
#	150
#	12584
#	33460
#	50565
#	63358
#	74943
#	91255
#	124125
#	145788
#	168900
#	186844
#	205325
#
# Disc length: 2906 seconds
#
# Revision: 1
# Processed by: cddbd v1.5.1PL0 Copyright (c) Steve Scherf et al.
# Submitted via: CDex 1.51
#
DISCID=b40b580c
DTITLE=WARRANT - THEN AND NOW (BEST OF)
DYEAR=2004
DGENRE=Rock
TTITLE0=DRFSR (Live)
TTITLE1=FAMILY PANIC
TTITLE2=DOWNBOYS (Live)
TTITLE3=FEELS GOOD
TTITLE4=HEAVEN
TTITLE5=FOLLOWED
TTITLE6=CHERRY PIE (Live)
TTITLE7=INDIAN GIVER
TTITLE8=UNCLE TOM'S CABIN (Live)
TTITLE9=STRONGER NOW
TTITLE10=MACHINE GUN (Live)
TTITLE11=A.Y.M.
EXTD=YEAR: 2004
EXTT0=
EXTT1=
EXTT2=
EXTT3=
EXTT4=
EXTT5=
EXTT6=
EXTT7=
EXTT8=
EXTT9=
EXTT10=
EXTT11=
PLAYORDER=
